<svg width="1600" height="1200" viewBox="0 0 1600 1200" fill="none" xmlns="http://www.w3.org/2000/svg">
  <rect width="1600" height="1200" fill="#F6F3ED"/>
  <g stroke="#C9C0B4" stroke-width="1.55" stroke-linecap="round" stroke-linejoin="round">
    <path d="M-62 126C17 83 122 61 212 74C307 87 389 135 484 149C575 162 674 138 760 101C838 69 910 29 994 23C1093 16 1194 39 1278 87C1368 138 1438 211 1543 231C1616 245 1689 236 1758 208"/>
    <path d="M-75 161C10 111 120 91 214 105C308 118 388 166 482 181C573 196 671 170 756 133C836 102 909 62 994 57C1091 50 1188 73 1271 119C1360 168 1430 239 1535 261C1608 276 1682 268 1751 242"/>
    <path d="M-89 197C4 141 117 122 213 136C309 150 388 198 481 214C571 229 668 203 752 166C833 136 907 96 994 91C1089 85 1185 106 1266 152C1352 200 1425 268 1527 292C1600 307 1675 301 1744 276"/>
    <path d="M-102 234C-1 174 115 154 212 169C309 183 388 232 479 248C569 264 666 237 749 201C831 171 907 131 993 127C1087 123 1182 141 1260 186C1344 232 1419 298 1519 325C1592 339 1669 335 1737 312"/>

    <path d="M124 300C173 274 237 268 289 284C343 300 385 337 403 390C421 442 414 504 382 548C349 595 291 626 230 624C169 622 110 587 78 531C46 477 42 409 66 356C79 327 99 312 124 300Z"/>
    <path d="M145 325C183 305 233 301 273 313C314 326 346 354 361 395C375 435 370 484 345 519C319 557 274 582 226 580C178 578 132 551 107 508C81 466 78 412 97 370C107 347 123 336 145 325Z"/>
    <path d="M164 347C193 332 231 329 261 338C292 347 317 368 328 398C338 428 334 465 315 492C296 521 261 541 224 540C187 539 152 518 132 486C113 454 110 413 125 381C133 363 145 354 164 347Z"/>

    <path d="M1035 129C1097 92 1177 83 1240 103C1307 124 1356 173 1375 238C1394 304 1383 379 1344 434C1305 490 1236 531 1163 530C1090 528 1017 485 979 420C941 357 938 280 969 217C983 189 1005 147 1035 129Z"/>
    <path d="M1059 158C1108 128 1172 121 1222 138C1275 156 1313 195 1329 247C1344 300 1336 361 1305 405C1274 451 1218 484 1161 483C1103 482 1046 448 1016 397C985 346 983 287 1007 237C1018 214 1034 182 1059 158Z"/>
    <path d="M1077 182C1116 159 1168 154 1208 167C1250 180 1282 211 1294 254C1307 297 1301 345 1276 381C1251 418 1206 445 1159 445C1112 444 1066 417 1042 375C1017 334 1016 287 1035 247C1044 229 1057 200 1077 182Z"/>

    <path d="M592 260C663 220 754 216 829 239C906 262 972 316 1011 391C1049 465 1054 559 1020 644C985 731 911 805 821 837C729 869 626 856 539 804C455 754 399 671 394 580C389 502 426 422 486 360C516 329 552 284 592 260Z"/>
    <path d="M622 294C678 262 752 259 811 278C873 297 925 340 955 401C986 462 989 538 962 608C934 680 876 739 804 764C731 789 649 779 581 739C514 700 469 636 466 565C462 504 491 442 539 393C563 369 591 326 622 294Z"/>
    <path d="M647 324C692 299 751 297 798 312C847 326 888 360 912 408C936 457 938 519 916 575C894 632 848 680 790 700C731 720 665 713 609 682C555 651 518 602 515 545C512 495 536 445 575 406C595 387 618 350 647 324Z"/>

    <path d="M-38 708C47 650 154 627 256 643C357 660 448 714 504 800C559 884 576 991 544 1091C512 1190 431 1276 329 1315C224 1355 105 1335 12 1268C-78 1204-132 1094-130 981C-128 875-72 779-7 728C7 716 24 704 43 694"/>
    <path d="M0 742C67 696 154 678 236 691C318 704 392 749 438 817C483 884 497 972 471 1052C446 1133 380 1202 297 1234C212 1266 117 1250 41 1194C-32 1139-76 1052-74 960C-72 874-27 796 26 755C37 746 51 736 66 727"/>
    <path d="M31 771C84 735 153 722 218 732C284 743 342 779 378 833C414 887 425 956 405 1021C385 1085 333 1138 268 1163C202 1188 128 1176 70 1132C14 1089-20 1022-18 950C-17 880 20 817 61 784C70 778 80 772 91 767"/>

    <path d="M1167 664C1254 621 1360 620 1454 653C1550 686 1630 751 1673 845C1715 938 1718 1048 1677 1140C1635 1234 1549 1313 1446 1351C1340 1391 1220 1383 1114 1340C1012 1297 932 1218 911 1111C890 1008 928 900 992 821C1038 764 1098 698 1167 664Z"/>
    <path d="M1194 696C1264 662 1350 662 1426 689C1505 717 1570 772 1606 849C1641 927 1644 1021 1610 1097C1577 1174 1508 1238 1424 1269C1338 1302 1241 1295 1156 1260C1074 1225 1011 1162 994 1077C977 994 1009 909 1062 844C1100 798 1146 723 1194 696Z"/>
    <path d="M1216 723C1272 695 1341 696 1402 718C1465 740 1517 784 1545 846C1574 908 1575 985 1549 1047C1522 1110 1466 1161 1398 1187C1329 1214 1251 1209 1183 1180C1117 1150 1066 1099 1052 1032C1039 968 1064 901 1106 850C1136 815 1177 745 1216 723Z"/>

    <path d="M435 836C490 807 560 801 613 820C668 840 710 882 729 938C749 995 743 1060 711 1111C679 1164 621 1201 558 1202C495 1204 433 1170 398 1111C362 1053 356 978 383 921C394 895 411 849 435 836Z"/>
    <path d="M456 861C498 839 553 835 595 850C638 866 671 898 687 941C702 983 698 1036 673 1076C647 1118 602 1147 553 1148C504 1149 456 1123 429 1077C401 1032 396 975 417 930C425 910 438 871 456 861Z"/>
    <path d="M474 883C507 866 549 863 581 875C614 887 640 912 651 944C663 977 660 1018 640 1050C620 1082 584 1105 545 1105C506 1106 468 1086 446 1051C425 1016 421 971 437 937C444 923 454 891 474 883Z"/>
  </g>
</svg>
