<svg width="720" height="1440" viewBox="0 0 720 1440" fill="none" xmlns="http://www.w3.org/2000/svg">
  <rect width="720" height="1440" fill="#030000"/>
  <g stroke="#6C6C74" stroke-width="1" stroke-dasharray="6 8" opacity="0.34">
    <path d="M0 0.5H720"/>
    <path d="M0 180.5H720"/>
    <path d="M0 360.5H720"/>
    <path d="M0 540.5H720"/>
    <path d="M0 720.5H720"/>
    <path d="M0 900.5H720"/>
    <path d="M0 1080.5H720"/>
    <path d="M0 1260.5H720"/>
    <path d="M90 0V1440"/>
    <path d="M270 0V1440"/>
    <path d="M450 0V1440"/>
    <path d="M630 0V1440"/>
  </g>
  <g stroke="#E7E7EE" stroke-linecap="round" stroke-linejoin="round">
    <path opacity="0.9" d="M-24 38C31 53 60 88 87 121C108 147 134 173 169 180C204 188 241 176 274 160C310 142 346 122 387 119C432 116 468 137 500 161C533 186 566 214 608 218C648 222 686 204 729 192"/>
    <path opacity="0.72" d="M-31 80C19 92 53 121 79 149C106 179 132 204 170 214C207 224 246 211 279 194C319 173 353 151 396 148C438 145 472 165 503 190C535 216 570 243 613 246C654 249 689 232 732 223"/>
    <path opacity="0.54" d="M-34 118C9 129 42 153 69 179C101 210 130 234 172 240C212 245 252 229 287 210C323 191 358 170 400 168C440 166 474 184 505 206C539 231 576 259 617 263C655 266 690 251 731 244"/>
    <path opacity="0.8" d="M4 270C33 239 72 220 114 222C154 225 188 247 216 274C245 302 270 335 308 347C347 359 389 347 427 333C463 320 501 306 540 313C578 320 607 345 630 376C653 406 676 438 710 455"/>
    <path opacity="0.63" d="M-10 308C21 276 59 252 102 252C146 252 183 274 213 301C243 328 269 359 309 370C348 380 389 369 428 355C467 341 506 329 545 337C584 344 614 372 637 401C662 433 684 463 718 478"/>
    <path opacity="0.44" d="M-18 342C16 308 55 286 100 285C146 283 184 305 216 331C248 357 276 387 315 397C356 407 397 394 436 381C473 368 510 356 547 364C585 372 615 399 640 428C664 457 688 486 723 500"/>
    <path opacity="0.78" d="M-21 520C23 497 70 489 111 500C153 511 184 538 213 568C242 599 272 630 315 641C356 652 398 640 439 628C482 615 525 604 567 614C607 624 638 652 660 688C681 722 697 760 726 788"/>
    <path opacity="0.58" d="M-25 557C16 535 58 527 98 535C142 544 175 572 205 602C237 634 270 666 315 676C357 686 401 673 442 661C484 649 526 639 566 649C607 659 639 687 663 721C686 755 704 791 732 818"/>
    <path opacity="0.4" d="M-29 592C13 570 54 563 95 570C139 578 173 605 204 634C237 666 272 699 317 710C360 720 403 708 446 696C486 684 527 675 565 686C604 698 636 725 660 758C683 789 703 824 731 849"/>
    <path opacity="0.84" d="M-11 823C25 780 70 748 121 742C168 737 207 755 239 785C274 818 302 859 344 884C386 909 433 911 480 907C526 903 573 894 614 912C657 930 686 969 704 1012C721 1053 727 1098 745 1138"/>
    <path opacity="0.66" d="M-18 861C17 820 58 789 107 782C157 774 200 791 236 819C272 847 302 887 346 911C389 936 436 938 482 934C530 930 578 923 620 942C661 960 689 997 708 1038C726 1077 734 1121 751 1161"/>
    <path opacity="0.46" d="M-23 900C8 860 48 831 97 822C147 814 191 830 229 858C267 887 299 926 344 949C387 972 434 975 480 972C527 968 574 964 615 982C655 999 684 1034 704 1072C724 1111 735 1152 751 1190"/>
    <path opacity="0.82" d="M-29 1098C15 1073 60 1061 104 1068C149 1074 184 1098 214 1128C242 1156 268 1191 308 1206C348 1222 392 1215 433 1206C473 1198 513 1186 555 1191C597 1197 632 1220 659 1251C687 1285 711 1323 742 1355"/>
    <path opacity="0.6" d="M-34 1137C7 1114 50 1104 95 1109C141 1115 177 1138 208 1167C239 1195 267 1229 309 1245C351 1260 395 1253 437 1244C476 1236 515 1226 555 1231C596 1237 632 1259 661 1289C689 1319 714 1355 744 1386"/>
    <path opacity="0.42" d="M-39 1173C1 1151 43 1143 88 1148C134 1153 171 1176 204 1204C236 1232 266 1266 309 1282C352 1297 397 1291 440 1282C480 1274 519 1267 558 1272C598 1277 634 1299 664 1328C692 1356 717 1390 747 1418"/>
    <path opacity="0.76" d="M85 43C109 51 126 73 131 98C138 129 130 161 111 186C94 208 66 220 38 216C11 213-12 195-21 169C-30 142-25 111-8 89C15 59 52 33 85 43Z"/>
    <path opacity="0.58" d="M90 70C109 77 122 94 126 115C131 139 125 164 111 183C97 201 75 210 52 207C29 203 10 188 1 167C-7 146-4 120 9 103C27 80 59 60 90 70Z"/>
    <path opacity="0.78" d="M271 71C315 63 357 91 367 135C379 183 349 234 301 248C253 263 203 238 188 190C174 143 201 85 250 75C257 73 264 72 271 71Z"/>
    <path opacity="0.56" d="M274 101C308 95 340 117 348 150C356 186 335 224 300 236C266 249 230 231 219 196C208 162 227 119 263 107C266 105 270 103 274 101Z"/>
    <path opacity="0.78" d="M530 79C562 66 602 72 628 95C656 119 667 160 654 198C642 236 607 264 567 267C527 271 488 252 468 218C449 185 448 141 471 109C485 91 506 80 530 79Z"/>
    <path opacity="0.56" d="M531 108C555 98 584 102 605 118C628 136 637 168 627 196C616 223 589 245 558 248C527 251 497 237 481 211C466 185 466 153 484 128C495 116 512 109 531 108Z"/>
    <path opacity="0.74" d="M151 386C190 371 235 381 262 413C291 448 296 499 273 540C250 580 204 604 160 598C117 592 80 559 69 517C57 474 73 425 110 399C122 390 136 387 151 386Z"/>
    <path opacity="0.52" d="M155 417C184 406 218 415 239 438C262 465 265 504 248 535C230 565 195 582 161 578C128 573 100 549 91 517C83 485 95 448 123 428C132 421 143 418 155 417Z"/>
    <path opacity="0.74" d="M400 592C437 574 483 578 514 606C546 635 559 682 548 725C538 769 504 806 460 818C416 830 369 817 339 785C308 753 299 705 316 663C331 625 362 598 400 592Z"/>
    <path opacity="0.52" d="M404 622C432 608 467 611 491 631C516 652 526 689 518 722C509 754 484 782 450 791C417 801 381 792 357 768C333 744 326 707 338 675C350 646 374 627 404 622Z"/>
    <path opacity="0.76" d="M561 927C607 920 650 948 665 990C681 1032 666 1083 626 1112C588 1139 534 1141 493 1117C451 1093 426 1044 433 997C440 951 475 914 521 904C534 901 548 901 561 927Z"/>
    <path opacity="0.54" d="M560 954C595 948 627 969 639 999C652 1030 641 1068 610 1091C581 1113 541 1114 508 1095C476 1076 457 1038 463 1003C468 968 494 940 528 932C538 930 549 931 560 954Z"/>
    <path opacity="0.7" d="M314 1077C347 1053 393 1052 430 1070C466 1087 490 1122 494 1160C498 1197 484 1234 457 1260C431 1287 392 1300 355 1292C319 1285 287 1257 275 1222C261 1186 268 1146 293 1115C299 1108 306 1101 314 1077Z"/>
    <path opacity="0.48" d="M318 1104C342 1087 377 1087 405 1100C432 1114 449 1140 453 1168C456 1196 446 1224 426 1244C407 1264 378 1275 350 1269C322 1263 298 1242 289 1214C279 1187 285 1155 304 1131C308 1122 313 1114 318 1104Z"/>
  </g>
</svg>
