<svg width="720" height="1440" viewBox="0 0 720 1440" fill="none" xmlns="http://www.w3.org/2000/svg">
  <rect width="720" height="1440" fill="#3F3D3B"/>
  <g stroke="#F5F5F3" stroke-linecap="round" stroke-linejoin="round">
    <path opacity="0.95" stroke-width="3.2" d="M-88 74C-28 33 54 21 120 38C183 54 227 97 289 116C351 135 420 131 481 108C536 87 586 51 646 44C718 35 790 71 840 126"/>
    <path opacity="0.92" stroke-width="1.4" d="M-102 108C-36 61 53 46 124 64C190 82 236 127 299 147C361 166 427 160 487 137C543 115 593 79 653 73C721 67 790 99 840 149"/>
    <path opacity="0.9" stroke-width="1.4" d="M-114 141C-45 92 47 76 121 96C188 115 236 160 301 180C364 199 430 194 491 171C547 150 598 114 658 107C724 100 792 129 840 176"/>
    <path opacity="0.88" stroke-width="1.4" d="M-122 176C-50 126 44 109 120 130C189 149 238 194 302 214C365 234 432 229 495 205C551 184 603 149 663 141C726 133 792 160 840 203"/>

    <path opacity="0.94" stroke-width="3.1" d="M-96 366C-22 314 63 296 136 319C202 340 249 392 305 427C367 466 435 482 503 471C567 461 628 425 681 381C732 338 779 287 841 263"/>
    <path opacity="0.9" stroke-width="1.4" d="M-109 402C-29 345 60 326 137 349C205 370 253 421 309 456C371 495 438 511 505 501C569 491 629 455 682 412C733 371 780 321 842 296"/>
    <path opacity="0.86" stroke-width="1.4" d="M-121 438C-35 376 57 357 136 381C206 403 256 453 313 487C374 525 440 543 506 533C570 524 630 488 684 446C734 406 781 355 842 329"/>
    <path opacity="0.82" stroke-width="1.4" d="M-130 474C-40 409 55 390 138 415C209 437 260 486 316 519C377 555 441 574 507 565C571 556 632 521 686 480C736 441 782 390 842 363"/>

    <path opacity="0.95" stroke-width="3.2" d="M-53 686C7 633 87 607 161 614C236 621 301 663 350 723C398 781 430 855 485 897C541 939 619 948 690 929C752 912 808 875 844 821"/>
    <path opacity="0.91" stroke-width="1.4" d="M-67 718C-3 660 81 632 160 640C237 649 302 692 352 751C401 809 433 880 489 922C544 964 620 974 689 957C750 942 805 907 844 854"/>
    <path opacity="0.88" stroke-width="1.4" d="M-79 750C-9 688 75 657 158 667C237 676 303 720 355 779C404 838 437 907 492 949C546 991 620 1001 687 985C748 971 801 940 844 888"/>
    <path opacity="0.84" stroke-width="1.4" d="M-88 783C-15 717 71 683 158 694C238 704 306 749 358 809C407 867 440 935 495 978C548 1018 621 1030 689 1014C749 1000 801 969 844 920"/>

    <path opacity="0.95" stroke-width="3.2" d="M-79 1088C-7 1030 87 1001 171 1011C250 1021 317 1063 362 1130C404 1194 424 1278 476 1331C530 1386 611 1399 684 1378C752 1359 809 1310 850 1248"/>
    <path opacity="0.9" stroke-width="1.4" d="M-92 1122C-14 1059 82 1028 170 1040C252 1051 320 1095 365 1161C406 1225 428 1307 481 1360C534 1413 611 1428 682 1408C749 1389 806 1341 850 1281"/>
    <path opacity="0.86" stroke-width="1.4" d="M-102 1154C-20 1087 77 1057 169 1070C252 1082 321 1127 367 1193C409 1257 431 1338 485 1391C537 1444 612 1458 681 1438C747 1420 804 1374 850 1315"/>
    <path opacity="0.82" stroke-width="1.4" d="M-110 1185C-26 1115 74 1084 169 1098C254 1110 323 1158 370 1224C412 1289 434 1368 488 1421C540 1472 613 1488 680 1469C745 1451 801 1407 850 1348"/>

    <path opacity="0.96" stroke-width="3.5" d="M43 130C89 104 140 106 176 133C214 161 233 212 225 259C217 307 185 347 139 364C94 381 42 371 4 341C-34 311-55 261-50 213C-45 176-5 149 43 130Z"/>
    <path opacity="0.92" stroke-width="1.4" d="M56 154C89 136 126 138 151 157C178 178 190 214 184 247C178 281 156 308 123 321C90 334 52 328 26 307C-1 286-15 250-11 216C-7 190 21 168 56 154Z"/>
    <path opacity="0.88" stroke-width="1.4" d="M67 176C91 164 118 165 136 179C156 194 164 220 159 243C155 266 139 284 116 293C93 302 67 299 48 285C29 271 19 246 22 223C24 206 42 188 67 176Z"/>

    <path opacity="0.96" stroke-width="3.5" d="M494 182C550 139 627 127 689 151C751 176 792 236 795 302C797 368 760 432 700 463C639 495 558 490 497 453C439 418 402 350 409 286C416 242 451 211 494 182Z"/>
    <path opacity="0.92" stroke-width="1.4" d="M516 207C559 173 620 164 669 183C718 202 751 250 753 301C755 353 726 405 679 431C631 457 568 454 520 425C474 398 445 344 450 294C456 261 483 230 516 207Z"/>
    <path opacity="0.88" stroke-width="1.4" d="M535 230C568 205 613 198 649 212C686 227 710 263 712 301C713 340 691 379 656 398C620 419 574 417 538 395C504 374 482 334 486 297C490 273 510 247 535 230Z"/>

    <path opacity="0.96" stroke-width="3.5" d="M282 487C338 453 412 455 466 492C518 529 547 598 540 665C532 733 489 792 426 821C362 851 284 847 221 814C160 781 122 719 126 650C130 589 173 533 232 502C248 493 265 489 282 487Z"/>
    <path opacity="0.92" stroke-width="1.4" d="M295 516C338 491 395 491 436 519C476 548 498 601 492 652C486 704 454 749 406 772C357 796 296 793 248 768C201 743 171 695 174 644C177 598 210 555 255 530C267 523 281 519 295 516Z"/>
    <path opacity="0.88" stroke-width="1.4" d="M307 541C341 522 385 522 416 544C447 567 463 607 459 646C454 685 431 719 394 736C357 753 311 750 274 732C239 715 217 679 220 641C222 607 246 575 281 555C289 549 298 545 307 541Z"/>

    <path opacity="0.96" stroke-width="3.5" d="M56 720C106 675 180 661 241 685C301 708 345 764 359 831C373 899 354 975 307 1027C261 1079 190 1106 124 1096C57 1086 0 1039-24 974C-47 910-34 836 8 780C20 763 37 740 56 720Z"/>
    <path opacity="0.92" stroke-width="1.4" d="M76 742C115 707 172 697 219 715C266 733 300 777 311 829C322 881 308 940 272 981C236 1023 181 1044 130 1037C79 1029 35 994 17 945C-2 897 8 840 40 796C49 783 61 760 76 742Z"/>
    <path opacity="0.88" stroke-width="1.4" d="M94 761C124 734 168 727 205 741C242 755 269 790 278 831C287 872 276 919 248 951C220 983 178 999 138 993C98 988 64 961 49 923C34 886 42 842 67 808C74 798 83 776 94 761Z"/>

    <path opacity="0.96" stroke-width="3.5" d="M548 758C616 707 708 698 782 733C855 768 906 839 920 924C935 1012 911 1105 852 1171C793 1239 702 1273 617 1261C531 1249 457 1194 426 1112C394 1030 408 931 461 849C483 815 512 785 548 758Z"/>
    <path opacity="0.92" stroke-width="1.4" d="M568 783C621 743 694 736 752 763C810 791 849 847 861 914C873 981 854 1063 809 1115C763 1169 692 1196 625 1188C558 1179 500 1137 476 1073C452 1009 463 925 505 861C523 834 545 808 568 783Z"/>
    <path opacity="0.88" stroke-width="1.4" d="M584 805C626 774 684 770 729 792C775 814 807 859 816 914C825 968 809 1033 773 1075C737 1119 681 1140 629 1133C576 1127 531 1095 511 1044C492 993 501 927 535 875C548 855 566 828 584 805Z"/>

    <path opacity="0.95" stroke-width="3.5" d="M272 1164C321 1128 387 1124 440 1148C494 1171 534 1222 545 1280C556 1339 538 1404 494 1451C451 1499 386 1521 326 1510C266 1498 214 1453 194 1395C173 1339 184 1275 222 1229C235 1214 252 1180 272 1164Z"/>
    <path opacity="0.91" stroke-width="1.4" d="M287 1188C325 1161 377 1158 420 1177C465 1198 498 1240 507 1287C516 1335 502 1390 467 1427C432 1466 380 1485 332 1476C284 1468 242 1432 226 1387C209 1342 217 1288 248 1251C258 1239 271 1201 287 1188Z"/>
    <path opacity="0.87" stroke-width="1.4" d="M300 1208C330 1187 372 1185 407 1200C443 1217 469 1249 477 1286C484 1324 473 1369 445 1399C417 1430 376 1445 337 1439C297 1432 264 1404 250 1368C237 1332 243 1288 268 1259C276 1249 287 1219 300 1208Z"/>
  </g>
</svg>
