<svg width="1000" height="560" viewBox="0 0 1000 560" fill="none" xmlns="http://www.w3.org/2000/svg">
  <g stroke="#F5F1E8" stroke-linecap="round" stroke-linejoin="round">
    <path opacity="0.32" d="M-64 118C7 69 70 54 123 65C171 74 208 100 263 100C324 101 365 67 427 56C516 39 587 73 657 94C740 119 819 119 905 91C968 71 1016 67 1070 84"/>
    <path opacity="0.28" d="M-58 172C26 131 98 123 151 138C198 151 230 182 285 187C343 193 390 160 447 145C527 124 594 153 661 177C733 204 810 213 895 191C962 174 1020 171 1070 188"/>
    <path opacity="0.23" d="M-45 228C33 198 100 199 155 214C214 230 255 261 317 269C379 277 427 250 482 231C552 207 615 227 677 252C752 283 825 294 899 281C966 268 1018 264 1070 274"/>
    <path opacity="0.26" d="M-48 314C35 288 100 292 161 304C226 317 272 346 332 357C394 367 442 345 498 325C569 300 628 316 691 342C761 371 829 382 899 375C962 369 1015 364 1074 370"/>
    <path opacity="0.22" d="M-59 406C12 388 82 386 147 394C214 404 270 429 331 440C396 453 446 442 509 417C571 392 628 398 692 419C764 443 835 450 909 439C970 430 1025 428 1081 437"/>
    <path opacity="0.26" d="M-72 494C8 481 80 475 145 483C210 491 263 514 319 523C377 532 429 525 492 504C562 481 624 485 689 501C769 521 840 526 916 516C983 507 1038 507 1094 515"/>
    <path opacity="0.42" d="M126 70C164 70 194 101 194 139C194 176 164 206 126 206C89 206 58 176 58 139C58 101 89 70 126 70Z"/>
    <path opacity="0.34" d="M126 92C152 92 173 113 173 139C173 164 152 185 126 185C101 185 80 164 80 139C80 113 101 92 126 92Z"/>
    <path opacity="0.26" d="M126 109C142 109 155 122 155 139C155 155 142 169 126 169C110 169 97 155 97 139C97 122 110 109 126 109Z"/>
    <path opacity="0.34" d="M310 34C374 34 426 86 426 151C426 216 374 267 310 267C245 267 193 216 193 151C193 86 245 34 310 34Z"/>
    <path opacity="0.28" d="M310 63C359 63 398 102 398 151C398 199 359 239 310 239C261 239 222 199 222 151C222 102 261 63 310 63Z"/>
    <path opacity="0.22" d="M310 89C344 89 371 117 371 151C371 184 344 212 310 212C276 212 249 184 249 151C249 117 276 89 310 89Z"/>
    <path opacity="0.38" d="M612 56C683 56 742 115 742 187C742 258 683 317 612 317C540 317 481 258 481 187C481 115 540 56 612 56Z"/>
    <path opacity="0.3" d="M612 87C666 87 710 131 710 187C710 241 666 286 612 286C557 286 513 241 513 187C513 131 557 87 612 87Z"/>
    <path opacity="0.24" d="M612 113C652 113 685 146 685 187C685 227 652 260 612 260C571 260 539 227 539 187C539 146 571 113 612 113Z"/>
    <path opacity="0.31" d="M833 113C884 113 925 155 925 206C925 257 884 298 833 298C782 298 740 257 740 206C740 155 782 113 833 113Z"/>
    <path opacity="0.25" d="M833 138C870 138 900 168 900 206C900 243 870 273 833 273C796 273 765 243 765 206C765 168 796 138 833 138Z"/>
    <path opacity="0.2" d="M833 158C859 158 881 180 881 206C881 232 859 253 833 253C807 253 786 232 786 206C786 180 807 158 833 158Z"/>
    <path opacity="0.3" d="M242 310C291 310 330 349 330 398C330 447 291 486 242 486C194 486 154 447 154 398C154 349 194 310 242 310Z"/>
    <path opacity="0.24" d="M242 335C277 335 305 363 305 398C305 432 277 461 242 461C208 461 180 432 180 398C180 363 208 335 242 335Z"/>
    <path opacity="0.18" d="M242 356C265 356 284 375 284 398C284 420 265 439 242 439C220 439 201 420 201 398C201 375 220 356 242 356Z"/>
    <path opacity="0.26" d="M489 363C547 363 594 410 594 468C594 526 547 573 489 573C431 573 384 526 384 468C384 410 431 363 489 363Z"/>
    <path opacity="0.2" d="M489 389C532 389 568 425 568 468C568 512 532 547 489 547C445 547 410 512 410 468C410 425 445 389 489 389Z"/>
    <path opacity="0.16" d="M489 414C518 414 542 438 542 468C542 497 518 521 489 521C459 521 435 497 435 468C435 438 459 414 489 414Z"/>
    <path opacity="0.29" d="M744 355C809 355 862 408 862 474C862 539 809 592 744 592C678 592 625 539 625 474C625 408 678 355 744 355Z"/>
    <path opacity="0.23" d="M744 383C794 383 834 423 834 474C834 524 794 565 744 565C693 565 653 524 653 474C653 423 693 383 744 383Z"/>
    <path opacity="0.18" d="M744 410C779 410 807 438 807 474C807 509 779 537 744 537C708 537 680 509 680 474C680 438 708 410 744 410Z"/>
    <path opacity="0.18" d="M922 12C946 21 964 40 973 67C984 99 979 132 959 156C940 179 911 190 883 186C852 182 826 162 814 133C802 104 807 69 826 45C849 17 888 0 922 12Z"/>
    <path opacity="0.2" d="M90 250C128 229 177 229 216 246C251 262 277 294 285 333C293 374 284 418 256 447C228 477 186 490 146 483C108 476 73 451 53 418C33 384 28 340 40 304C50 276 66 262 90 250Z"/>
    <path opacity="0.16" d="M563 218C584 207 610 205 630 213C647 221 660 237 664 256C668 277 663 299 649 315C634 332 611 340 589 336C567 332 548 317 539 297C530 277 529 252 539 235C544 226 552 220 563 218Z"/>
  </g>
</svg>
